<?xml version="1.0" encoding="UTF-8" standalone="no" ?><svg xmlns="http://www.w3.org/2000/svg" xmlns:xlink="http://www.w3.org/1999/xlink" xmlns:ns4d="http://www.4D.com" ns4d:font-weight-legacy="false" version="1.1" width="595pt" height="842pt" viewBox="0 0 595 842" preserveAspectRatio="none"><title>4D Write Pro New Document</title><style type="text/css">text { white-space:pre }</style><g fill="#FFFFFF" stroke="#000000" stroke-width="1" stroke-miterlimit="10" font-family="&apos;Times New Roman&apos;" font-size="12"><g><g><g stroke="none"><rect x="0" y="0" width="595" height="842"/></g><clipPath id="clip1"><rect x="0" y="27.35" width="595" height="553.4"/></clipPath><g clip-path="url(#clip1)"><g transform="translate(42.5,16.35)" fill="#000000" stroke="none" font-family="&apos;Arial&apos;" font-size="16"><text x="197.75" y="26.45">Horizontal merge</text></g><g transform="translate(78.35,50.75)" font-family="&apos;Arial&apos;" font-size="16"><g transform="translate(0.25,2.25)"><g><g transform="translate(-78.6,-53)" fill="#BFD5F1" stroke="none"><rect x="78.85" y="53.25" width="444.7" height="20.45"/></g></g></g><g transform="translate(0.25,23)"><g><g transform="translate(-78.6,-73.75)" fill="#E4EBF8" stroke="none"><rect x="78.85" y="73.8" width="165.3" height="38.5"/><rect x="244.25" y="73.8" width="279.3" height="38.5"/></g></g></g><g fill="none" stroke-width="0.5" stroke-linecap="square"><rect x="0.25" y="2.25" width="445.2" height="102.45"/></g><g transform="translate(0.25,2.25)"><g><g><clipPath id="clip2"><rect x="-0.25" y="-0.25" width="445.7" height="21.05"/></clipPath><g stroke-linecap="square" clip-path="url(#clip2)"><clipPath id="clip3"><rect x="0.2" y="19.75" width="444.8" height="1.05"/></clipPath><g stroke-width="0.1" clip-path="url(#clip3)"><line x1="0" y1="20.75" x2="445.2" y2="20.75"/></g></g></g><g><clipPath id="clip4"><rect x="-0.75" y="1.25" width="446.7" height="18.45"/></clipPath><g clip-path="url(#clip4)"><g transform="translate(2.25,2.25)" fill="#09399B" stroke="none" font-weight="bold" font-size="14"><text x="62.4" y="13">These four cells have been horizontaly merged.</text></g></g></g></g></g><g transform="translate(0.25,23)"><g><g><clipPath id="clip5"><rect x="-0.25" y="-0.05" width="165.9" height="38.7"/></clipPath><g stroke-linecap="square" clip-path="url(#clip5)"><clipPath id="clip6"><rect x="164.6" y="0" width="1.05" height="38.65"/></clipPath><g stroke-width="0.1" clip-path="url(#clip6)"><line x1="165.6" y1="0" x2="165.6" y2="38.6"/></g></g><clipPath id="clip7"><rect x="-0.25" y="-0.05" width="165.9" height="38.7"/></clipPath><g stroke-linecap="square" clip-path="url(#clip7)"><clipPath id="clip8"><rect x="0.2" y="37.6" width="165.45" height="1.05"/></clipPath><g stroke-width="0.1" clip-path="url(#clip8)"><line x1="0" y1="38.6" x2="165.6" y2="38.6"/></g></g></g><g><clipPath id="clip9"><rect x="-0.75" y="1.05" width="167.3" height="36.5"/></clipPath><g clip-path="url(#clip9)"><g transform="translate(2.25,2.05)" fill="#09399B" stroke="none" font-family="&apos;Times New Roman&apos;" font-size="15"><text x="1.55" y="13.35">These </text><g font-weight="bold"><text x="41.1" y="13.35">two</text><g font-weight="normal"><text x="64.45" y="13.35"> cells have been </text><g font-weight="bold"><text x="17.9" y="30.6">horizontaly</text><g font-weight="normal"><text x="91.25" y="30.6"> merged.</text></g></g></g></g></g></g></g><g transform="translate(165.6,0)"><clipPath id="clip10"><rect x="-0.05" y="-0.05" width="279.9" height="38.7"/></clipPath><g stroke-linecap="square" clip-path="url(#clip10)"><clipPath id="clip11"><rect x="0" y="37.6" width="279.4" height="1.05"/></clipPath><g stroke-width="0.1" clip-path="url(#clip11)"><line x1="0" y1="38.6" x2="279.6" y2="38.6"/></g></g></g><g transform="translate(165.6,0)"><clipPath id="clip12"><rect x="-0.95" y="1.05" width="281.3" height="36.5"/></clipPath><g clip-path="url(#clip12)"><g transform="translate(2.05,2.05)" fill="#09399B" stroke="none" font-family="&apos;Times New Roman&apos;" font-size="15"><text x="20" y="13.35">These </text><g font-weight="bold"><text x="59.55" y="13.35">two</text><g font-weight="normal"><text x="82.9" y="13.35"> cells have been </text><g font-weight="bold"><text x="182" y="13.35">horizontaly</text><g font-weight="normal"><text x="113.45" y="30.6">merged.</text></g></g></g></g></g></g></g></g></g><g transform="translate(0.25,61.6)"><g><g><clipPath id="clip13"><rect x="-0.25" y="-0.05" width="83.2" height="21.55"/></clipPath><g stroke-linecap="square" clip-path="url(#clip13)"><clipPath id="clip14"><rect x="81.9" y="0" width="1.05" height="21.5"/></clipPath><g stroke-width="0.1" clip-path="url(#clip14)"><line x1="82.9" y1="0" x2="82.9" y2="21.45"/></g></g><clipPath id="clip15"><rect x="-0.25" y="-0.05" width="83.2" height="21.55"/></clipPath><g stroke-linecap="square" clip-path="url(#clip15)"><clipPath id="clip16"><rect x="0.2" y="20.45" width="82.75" height="1.05"/></clipPath><g stroke-width="0.1" clip-path="url(#clip16)"><line x1="0" y1="21.45" x2="82.9" y2="21.45"/></g></g></g><g><clipPath id="clip17"><rect x="-0.75" y="1" width="84.6" height="19.35"/></clipPath></g><g transform="translate(82.9,0)"><clipPath id="clip18"><rect x="-0.05" y="-0.05" width="82.8" height="21.55"/></clipPath><g stroke-linecap="square" clip-path="url(#clip18)"><clipPath id="clip19"><rect x="81.7" y="0" width="1.05" height="21.5"/></clipPath><g stroke-width="0.1" clip-path="url(#clip19)"><line x1="82.7" y1="0" x2="82.7" y2="21.45"/></g></g><clipPath id="clip20"><rect x="-0.05" y="-0.05" width="82.8" height="21.55"/></clipPath><g stroke-linecap="square" clip-path="url(#clip20)"><clipPath id="clip21"><rect x="0" y="20.45" width="82.75" height="1.05"/></clipPath><g stroke-width="0.1" clip-path="url(#clip21)"><line x1="0" y1="21.45" x2="82.7" y2="21.45"/></g></g></g><g transform="translate(82.9,0)"><clipPath id="clip22"><rect x="-0.95" y="1" width="84.6" height="19.35"/></clipPath></g><g transform="translate(165.6,0)"><clipPath id="clip23"><rect x="-0.05" y="-0.05" width="84.45" height="21.55"/></clipPath><g stroke-linecap="square" clip-path="url(#clip23)"><clipPath id="clip24"><rect x="83.35" y="0" width="1.05" height="21.5"/></clipPath><g stroke-width="0.1" clip-path="url(#clip24)"><line x1="84.35" y1="0" x2="84.35" y2="21.45"/></g></g><clipPath id="clip25"><rect x="-0.05" y="-0.05" width="84.45" height="21.55"/></clipPath><g stroke-linecap="square" clip-path="url(#clip25)"><clipPath id="clip26"><rect x="0" y="20.45" width="84.4" height="1.05"/></clipPath><g stroke-width="0.1" clip-path="url(#clip26)"><line x1="0" y1="21.45" x2="84.35" y2="21.45"/></g></g></g><g transform="translate(165.6,0)"><clipPath id="clip27"><rect x="-0.95" y="1" width="86.25" height="19.35"/></clipPath></g><g transform="translate(249.95,0)"><clipPath id="clip28"><rect x="-0.95" y="1.05" width="196.95" height="19.25"/></clipPath></g></g></g><g transform="translate(0.25,83.05)"><g><g><clipPath id="clip29"><rect x="-0.25" y="-0.05" width="83.2" height="21.95"/></clipPath><g stroke-linecap="square" clip-path="url(#clip29)"><clipPath id="clip30"><rect x="81.9" y="0" width="1.05" height="21.45"/></clipPath><g stroke-width="0.1" clip-path="url(#clip30)"><line x1="82.9" y1="0" x2="82.9" y2="21.65"/></g></g></g><g><clipPath id="clip31"><rect x="-0.75" y="1" width="84.6" height="19.35"/></clipPath></g><g transform="translate(82.9,0)"><clipPath id="clip32"><rect x="-0.05" y="-0.05" width="82.8" height="21.95"/></clipPath><g stroke-linecap="square" clip-path="url(#clip32)"><clipPath id="clip33"><rect x="81.7" y="0" width="1.05" height="21.45"/></clipPath><g stroke-width="0.1" clip-path="url(#clip33)"><line x1="82.7" y1="0" x2="82.7" y2="21.65"/></g></g></g><g transform="translate(82.9,0)"><clipPath id="clip34"><rect x="-0.95" y="1" width="84.6" height="19.35"/></clipPath></g><g transform="translate(165.6,0)"><clipPath id="clip35"><rect x="-0.95" y="1" width="86.15" height="19.35"/></clipPath></g><g transform="translate(249.95,0)"><clipPath id="clip36"><rect x="-0.15" y="-0.15" width="195.65" height="22.05"/></clipPath><g stroke-linecap="square" clip-path="url(#clip36)"><clipPath id="clip37"><rect x="-0.15" y="-0.15" width="1.15" height="21.6"/></clipPath><g stroke-width="0.3" clip-path="url(#clip37)"><line x1="0" y1="0" x2="0" y2="21.65"/></g></g><clipPath id="clip38"><rect x="-0.15" y="-0.15" width="195.65" height="22.05"/></clipPath><g stroke-linecap="square" clip-path="url(#clip38)"><clipPath id="clip39"><rect x="-0.15" y="-0.15" width="195.2" height="1.15"/></clipPath><g stroke-width="0.3" clip-path="url(#clip39)"><line x1="0" y1="0" x2="195.25" y2="0"/></g></g></g><g transform="translate(249.95,0)"><clipPath id="clip40"><rect x="-0.85" y="1.15" width="196.85" height="19.25"/></clipPath></g></g></g></g><g transform="translate(42.5,157.7)" fill="#000000" stroke="none" font-family="&apos;Arial&apos;" font-size="16"><text x="207.6" y="26.45">Vertical merge</text></g><g transform="translate(78.425,192.1)" font-family="&apos;Arial&apos;" font-size="16"><g transform="translate(0.25,2.25)"><g><g transform="translate(-78.675,-194.35)" fill="#E5FFE5" stroke="none"><rect x="78.925" y="194.6" width="84.95" height="86.25"/><g fill="#E6FFE6"><rect x="163.975" y="194.6" width="177.9" height="40.3"/></g></g></g></g><g transform="translate(0.25,42.85)"><g><g transform="translate(-78.675,-234.95)" fill="#E6FFE6" stroke="none"><rect x="163.975" y="235" width="177.9" height="45.85"/></g></g></g><g fill="none" stroke-width="0.5" stroke-linecap="square"><rect x="0.25" y="2.25" width="445.05" height="86.55"/></g><g transform="translate(0.25,2.25)"><g><g><clipPath id="clip41"><rect x="-0.25" y="-0.25" width="85.55" height="86.85"/></clipPath><g stroke-linecap="square" clip-path="url(#clip41)"><clipPath id="clip42"><rect x="84.25" y="0.2" width="1.05" height="86.4"/></clipPath><g stroke-width="0.1" clip-path="url(#clip42)"><line x1="85.25" y1="0" x2="85.25" y2="86.55"/></g></g><clipPath id="clip43"><rect x="-0.25" y="-0.25" width="85.55" height="86.85"/></clipPath><g stroke-linecap="square" clip-path="url(#clip43)"><clipPath id="clip44"><rect x="0.2" y="85.55" width="85.1" height="1.05"/></clipPath><g stroke-width="0.1" clip-path="url(#clip44)"><line x1="0" y1="86.55" x2="85.25" y2="86.55"/></g></g></g><g><clipPath id="clip45"><rect x="-0.75" y="1.25" width="86.95" height="84.25"/></clipPath><g clip-path="url(#clip45)"><g transform="translate(2.25,2.25)" fill="#004D00" stroke="none" font-size="14"><text x="5.5" y="13">These </text><g font-weight="bold"><text x="48.3" y="13">four</text><g font-weight="normal"><text x="9.35" y="29.45">cells have </text><text x="24.9" y="45.9">been </text><g font-weight="bold"><text x="10.15" y="62.35">vertically</text><g font-weight="normal"><text x="14.8" y="78.8">merged. </text></g></g></g></g></g></g></g><g transform="translate(85.25,0)"><clipPath id="clip46"><rect x="-0.05" y="-0.25" width="178.1" height="40.9"/></clipPath><g stroke-linecap="square" clip-path="url(#clip46)"><clipPath id="clip47"><rect x="177" y="0.2" width="1.05" height="40.45"/></clipPath><g stroke-width="0.1" clip-path="url(#clip47)"><line x1="178" y1="0" x2="178" y2="40.6"/></g></g><clipPath id="clip48"><rect x="-0.05" y="-0.25" width="178.1" height="40.9"/></clipPath><g stroke-linecap="square" clip-path="url(#clip48)"><clipPath id="clip49"><rect x="0" y="39.6" width="178.05" height="1.05"/></clipPath><g stroke-width="0.1" clip-path="url(#clip49)"><line x1="0" y1="40.6" x2="178" y2="40.6"/></g></g></g><g transform="translate(85.25,0)"><clipPath id="clip50"><rect x="-0.95" y="-0.45" width="179.9" height="38.3"/></clipPath><g transform="translate(0,1.7)" clip-path="url(#clip50)"><g transform="translate(2.05,2.25)" fill="#004D00" stroke="none" font-size="14"><text x="2.9" y="13">These </text><g font-weight="bold"><text x="45.7" y="13">two</text><g font-weight="normal"><text x="69.8" y="13"> cells have been </text><g font-weight="bold"><text x="29" y="29.45">vertically</text><g font-weight="normal"><text x="89.7" y="29.45"> merged.</text></g></g></g></g></g></g></g><g transform="translate(263.25,0)"><clipPath id="clip51"><rect x="-0.05" y="-0.25" width="118.85" height="20.7"/></clipPath><g stroke-linecap="square" clip-path="url(#clip51)"><clipPath id="clip52"><rect x="117.75" y="0.2" width="1.05" height="20.25"/></clipPath><g stroke-width="0.1" clip-path="url(#clip52)"><line x1="118.75" y1="0" x2="118.75" y2="20.4"/></g></g><clipPath id="clip53"><rect x="-0.05" y="-0.25" width="118.85" height="20.7"/></clipPath><g stroke-linecap="square" clip-path="url(#clip53)"><clipPath id="clip54"><rect x="0" y="19.4" width="118.8" height="1.05"/></clipPath><g stroke-width="0.1" clip-path="url(#clip54)"><line x1="0" y1="20.4" x2="118.75" y2="20.4"/></g></g></g><g transform="translate(263.25,0)"><clipPath id="clip55"><rect x="-0.95" y="1.25" width="120.65" height="18.1"/></clipPath></g><g transform="translate(382,0)"><clipPath id="clip56"><rect x="-0.05" y="-0.25" width="63.35" height="20.7"/></clipPath><g stroke-linecap="square" clip-path="url(#clip56)"><clipPath id="clip57"><rect x="0" y="19.4" width="62.85" height="1.05"/></clipPath><g stroke-width="0.1" clip-path="url(#clip57)"><line x1="0" y1="20.4" x2="63.05" y2="20.4"/></g></g></g><g transform="translate(382,0)"><clipPath id="clip58"><rect x="-0.95" y="1.25" width="64.75" height="18.1"/></clipPath></g></g></g><g transform="translate(0.25,22.65)"><g><g transform="translate(263.25,0)"><clipPath id="clip59"><rect x="-0.05" y="-0.05" width="118.85" height="20.3"/></clipPath><g stroke-linecap="square" clip-path="url(#clip59)"><clipPath id="clip60"><rect x="117.75" y="0" width="1.05" height="20.25"/></clipPath><g stroke-width="0.1" clip-path="url(#clip60)"><line x1="118.75" y1="0" x2="118.75" y2="20.2"/></g></g><clipPath id="clip61"><rect x="-0.05" y="-0.05" width="118.85" height="20.3"/></clipPath><g stroke-linecap="square" clip-path="url(#clip61)"><clipPath id="clip62"><rect x="0" y="19.2" width="118.8" height="1.05"/></clipPath><g stroke-width="0.1" clip-path="url(#clip62)"><line x1="0" y1="20.2" x2="118.75" y2="20.2"/></g></g></g><g transform="translate(263.25,0)"><clipPath id="clip63"><rect x="-0.95" y="1.05" width="120.65" height="18.1"/></clipPath></g><g transform="translate(382,0)"><clipPath id="clip64"><rect x="-0.05" y="-0.05" width="63.35" height="20.3"/></clipPath><g stroke-linecap="square" clip-path="url(#clip64)"><clipPath id="clip65"><rect x="0" y="19.2" width="62.85" height="1.05"/></clipPath><g stroke-width="0.1" clip-path="url(#clip65)"><line x1="0" y1="20.2" x2="63.05" y2="20.2"/></g></g></g><g transform="translate(382,0)"><clipPath id="clip66"><rect x="-0.95" y="1.05" width="64.75" height="18.1"/></clipPath></g></g></g><g transform="translate(0.25,42.85)"><g><g transform="translate(85.25,0)"><clipPath id="clip67"><rect x="-0.05" y="-0.05" width="178.1" height="46.05"/></clipPath><g stroke-linecap="square" clip-path="url(#clip67)"><clipPath id="clip68"><rect x="177" y="0" width="1.05" height="46"/></clipPath><g stroke-width="0.1" clip-path="url(#clip68)"><line x1="178" y1="0" x2="178" y2="45.95"/></g></g><clipPath id="clip69"><rect x="-0.05" y="-0.05" width="178.1" height="46.05"/></clipPath><g stroke-linecap="square" clip-path="url(#clip69)"><clipPath id="clip70"><rect x="0" y="44.95" width="178.05" height="1.05"/></clipPath><g stroke-width="0.1" clip-path="url(#clip70)"><line x1="0" y1="45.95" x2="178" y2="45.95"/></g></g></g><g transform="translate(85.25,0)"><clipPath id="clip71"><rect x="-0.95" y="-3.425" width="179.9" height="43.85"/></clipPath><g transform="translate(0,4.475)" clip-path="url(#clip71)"><g transform="translate(2.05,2.05)" fill="#004D00" stroke="none" font-size="14"><text x="2.9" y="13">These </text><g font-weight="bold"><text x="45.7" y="13">two</text><g font-weight="normal"><text x="69.8" y="13"> cells have been </text><g font-weight="bold"><text x="29" y="29.45">vertically</text><g font-weight="normal"><text x="89.7" y="29.45"> merged.</text></g></g></g></g></g></g></g><g transform="translate(263.25,0)"><clipPath id="clip72"><rect x="-0.05" y="-0.05" width="118.85" height="20.75"/></clipPath><g stroke-linecap="square" clip-path="url(#clip72)"><clipPath id="clip73"><rect x="117.75" y="0" width="1.05" height="20.7"/></clipPath><g stroke-width="0.1" clip-path="url(#clip73)"><line x1="118.75" y1="0" x2="118.75" y2="20.65"/></g></g><clipPath id="clip74"><rect x="-0.05" y="-0.05" width="118.85" height="20.75"/></clipPath><g stroke-linecap="square" clip-path="url(#clip74)"><clipPath id="clip75"><rect x="0" y="19.65" width="118.8" height="1.05"/></clipPath><g stroke-width="0.1" clip-path="url(#clip75)"><line x1="0" y1="20.65" x2="118.75" y2="20.65"/></g></g></g><g transform="translate(263.25,0)"><clipPath id="clip76"><rect x="-0.95" y="1" width="120.65" height="18.55"/></clipPath></g><g transform="translate(382,0)"><clipPath id="clip77"><rect x="-0.95" y="1.05" width="64.75" height="18.45"/></clipPath></g></g></g><g transform="translate(0.25,63.5)"><g><g transform="translate(263.25,0)"><clipPath id="clip78"><rect x="-0.95" y="-1.225" width="120.55" height="23"/></clipPath></g><g transform="translate(382,0)"><clipPath id="clip79"><rect x="-0.15" y="-0.15" width="63.45" height="25.7"/></clipPath><g stroke-linecap="square" clip-path="url(#clip79)"><clipPath id="clip80"><rect x="-0.15" y="-0.15" width="1.15" height="25.25"/></clipPath><g stroke-width="0.3" clip-path="url(#clip80)"><line x1="0" y1="0" x2="0" y2="25.3"/></g></g><clipPath id="clip81"><rect x="-0.15" y="-0.15" width="63.45" height="25.7"/></clipPath><g stroke-linecap="square" clip-path="url(#clip81)"><clipPath id="clip82"><rect x="-0.15" y="-0.15" width="63" height="1.15"/></clipPath><g stroke-width="0.3" clip-path="url(#clip82)"><line x1="0" y1="0" x2="63.05" y2="0"/></g></g></g><g transform="translate(382,0)"><clipPath id="clip83"><rect x="-0.85" y="-1.075" width="64.65" height="22.9"/></clipPath></g></g></g></g><g transform="translate(42.5,283.15)" fill="#000000" stroke="none" font-family="&apos;Arial&apos;" font-size="16"><text x="161.75" y="26.45">Horizontal &amp; Vertical merge</text></g><g transform="translate(76.575,317.55)" font-family="&apos;Arial&apos;" font-size="16"><g transform="translate(0.25,23)"><g><g transform="translate(-76.825,-340.55)" fill="#797979" stroke="none"><rect x="136.875" y="340.6" width="388.45" height="41"/></g></g></g><g fill="none" stroke-width="0.5" stroke-linecap="square"><rect x="0.25" y="2.25" width="448.75" height="82.7"/></g><g transform="translate(0.25,2.25)"><g><g><clipPath id="clip84"><rect x="-0.25" y="-0.25" width="60.3" height="21.05"/></clipPath><g stroke-linecap="square" clip-path="url(#clip84)"><clipPath id="clip85"><rect x="59" y="0.2" width="1.05" height="20.6"/></clipPath><g stroke-width="0.1" clip-path="url(#clip85)"><line x1="60" y1="0" x2="60" y2="20.75"/></g></g><clipPath id="clip86"><rect x="-0.25" y="-0.25" width="60.3" height="21.05"/></clipPath><g stroke-linecap="square" clip-path="url(#clip86)"><clipPath id="clip87"><rect x="0.2" y="19.75" width="59.85" height="1.05"/></clipPath><g stroke-width="0.1" clip-path="url(#clip87)"><line x1="0" y1="20.75" x2="60" y2="20.75"/></g></g></g><g><clipPath id="clip88"><rect x="-0.75" y="1.25" width="61.7" height="18.45"/></clipPath></g><g transform="translate(60,0)"><clipPath id="clip89"><rect x="-0.05" y="-0.25" width="105.7" height="21.05"/></clipPath><g stroke-linecap="square" clip-path="url(#clip89)"><clipPath id="clip90"><rect x="104.6" y="0.2" width="1.05" height="20.6"/></clipPath><g stroke-width="0.1" clip-path="url(#clip90)"><line x1="105.6" y1="0" x2="105.6" y2="20.75"/></g></g><clipPath id="clip91"><rect x="-0.05" y="-0.25" width="105.7" height="21.05"/></clipPath><g stroke-linecap="square" clip-path="url(#clip91)"><clipPath id="clip92"><rect x="0" y="19.75" width="105.65" height="1.05"/></clipPath><g stroke-width="0.1" clip-path="url(#clip92)"><line x1="0" y1="20.75" x2="105.6" y2="20.75"/></g></g></g><g transform="translate(60,0)"><clipPath id="clip93"><rect x="-0.95" y="1.25" width="107.5" height="18.45"/></clipPath></g><g transform="translate(165.6,0)"><clipPath id="clip94"><rect x="-0.05" y="-0.25" width="84.45" height="21.05"/></clipPath><g stroke-linecap="square" clip-path="url(#clip94)"><clipPath id="clip95"><rect x="83.35" y="0.2" width="1.05" height="20.6"/></clipPath><g stroke-width="0.1" clip-path="url(#clip95)"><line x1="84.35" y1="0" x2="84.35" y2="20.75"/></g></g><clipPath id="clip96"><rect x="-0.05" y="-0.25" width="84.45" height="21.05"/></clipPath><g stroke-linecap="square" clip-path="url(#clip96)"><clipPath id="clip97"><rect x="0" y="19.75" width="84.4" height="1.05"/></clipPath><g stroke-width="0.1" clip-path="url(#clip97)"><line x1="0" y1="20.75" x2="84.35" y2="20.75"/></g></g></g><g transform="translate(165.6,0)"><clipPath id="clip98"><rect x="-0.95" y="1.25" width="86.25" height="18.45"/></clipPath></g><g transform="translate(249.95,0)"><clipPath id="clip99"><rect x="-0.05" y="-0.25" width="199.1" height="21.05"/></clipPath><g stroke-linecap="square" clip-path="url(#clip99)"><clipPath id="clip100"><rect x="0" y="19.75" width="198.6" height="1.05"/></clipPath><g stroke-width="0.1" clip-path="url(#clip100)"><line x1="0" y1="20.75" x2="198.8" y2="20.75"/></g></g></g><g transform="translate(249.95,0)"><clipPath id="clip101"><rect x="-0.95" y="1.25" width="200.5" height="18.45"/></clipPath></g></g></g><g transform="translate(0.25,23)"><g><g><clipPath id="clip102"><rect x="-0.25" y="-0.05" width="60.3" height="20.65"/></clipPath><g stroke-linecap="square" clip-path="url(#clip102)"><clipPath id="clip103"><rect x="59" y="0" width="1.05" height="20.6"/></clipPath><g stroke-width="0.1" clip-path="url(#clip103)"><line x1="60" y1="0" x2="60" y2="20.55"/></g></g><clipPath id="clip104"><rect x="-0.25" y="-0.05" width="60.3" height="20.65"/></clipPath><g stroke-linecap="square" clip-path="url(#clip104)"><clipPath id="clip105"><rect x="0.2" y="19.55" width="59.85" height="1.05"/></clipPath><g stroke-width="0.1" clip-path="url(#clip105)"><line x1="0" y1="20.55" x2="60" y2="20.55"/></g></g></g><g><clipPath id="clip106"><rect x="-0.75" y="1.05" width="61.7" height="18.45"/></clipPath></g><g transform="translate(60,0)"><clipPath id="clip107"><rect x="-0.05" y="-0.05" width="389.05" height="41.2"/></clipPath><g stroke-linecap="square" clip-path="url(#clip107)"><clipPath id="clip108"><rect x="0" y="40.1" width="388.55" height="1.05"/></clipPath><g stroke-width="0.1" clip-path="url(#clip108)"><line x1="0" y1="41.1" x2="388.75" y2="41.1"/></g></g></g><g transform="translate(60,0)"><clipPath id="clip109"><rect x="-0.95" y="-1" width="390.45" height="39"/></clipPath><g transform="translate(0,2.05)" clip-path="url(#clip109)"><g transform="translate(2.05,2.05)" fill="#F2F9FF" stroke="none" font-size="14"><text x="9.4" y="13">These </text><g font-weight="bold"><text x="52.2" y="13">six</text><g font-weight="normal"><text x="71.65" y="13"> (3x2) cells have been </text><g font-weight="bold"><text x="212.5" y="13">horizontaly</text><g font-weight="normal"><text x="287.15" y="13"> and </text><g font-weight="bold"><text x="318.3" y="13">verticaly</text><g font-weight="normal"><text x="166.55" y="29.45">merged</text><g fill="#000000"><text x="214" y="29.45">.</text></g></g></g></g></g></g></g></g></g></g></g></g><g transform="translate(0.25,43.55)"><g><g><clipPath id="clip110"><rect x="-0.25" y="-0.05" width="60.3" height="20.65"/></clipPath><g stroke-linecap="square" clip-path="url(#clip110)"><clipPath id="clip111"><rect x="59" y="0" width="1.05" height="20.6"/></clipPath><g stroke-width="0.1" clip-path="url(#clip111)"><line x1="60" y1="0" x2="60" y2="20.55"/></g></g><clipPath id="clip112"><rect x="-0.25" y="-0.05" width="60.3" height="20.65"/></clipPath><g stroke-linecap="square" clip-path="url(#clip112)"><clipPath id="clip113"><rect x="0.2" y="19.55" width="59.85" height="1.05"/></clipPath><g stroke-width="0.1" clip-path="url(#clip113)"><line x1="0" y1="20.55" x2="60" y2="20.55"/></g></g></g><g><clipPath id="clip114"><rect x="-0.75" y="1.05" width="61.7" height="18.45"/></clipPath></g></g></g><g transform="translate(0.25,64.1)"><g><g><clipPath id="clip115"><rect x="-0.25" y="-0.05" width="60.3" height="21.15"/></clipPath><g stroke-linecap="square" clip-path="url(#clip115)"><clipPath id="clip116"><rect x="59" y="0" width="1.05" height="20.65"/></clipPath><g stroke-width="0.1" clip-path="url(#clip116)"><line x1="60" y1="0" x2="60" y2="20.85"/></g></g></g><g><clipPath id="clip117"><rect x="-0.75" y="1" width="61.7" height="18.55"/></clipPath></g><g transform="translate(60,0)"><clipPath id="clip118"><rect x="-0.05" y="-0.05" width="105.7" height="21.15"/></clipPath><g stroke-linecap="square" clip-path="url(#clip118)"><clipPath id="clip119"><rect x="104.6" y="0" width="1.05" height="20.65"/></clipPath><g stroke-width="0.1" clip-path="url(#clip119)"><line x1="105.6" y1="0" x2="105.6" y2="20.85"/></g></g></g><g transform="translate(60,0)"><clipPath id="clip120"><rect x="-0.95" y="1" width="107.5" height="18.55"/></clipPath></g><g transform="translate(165.6,0)"><clipPath id="clip121"><rect x="-0.95" y="1" width="86.15" height="18.55"/></clipPath></g><g transform="translate(249.95,0)"><clipPath id="clip122"><rect x="-0.15" y="-0.15" width="199.2" height="21.25"/></clipPath><g stroke-linecap="square" clip-path="url(#clip122)"><clipPath id="clip123"><rect x="-0.15" y="-0.15" width="1.15" height="20.8"/></clipPath><g stroke-width="0.3" clip-path="url(#clip123)"><line x1="0" y1="0" x2="0" y2="20.85"/></g></g><clipPath id="clip124"><rect x="-0.15" y="-0.15" width="199.2" height="21.25"/></clipPath><g stroke-linecap="square" clip-path="url(#clip124)"><clipPath id="clip125"><rect x="-0.15" y="-0.15" width="198.75" height="1.15"/></clipPath><g stroke-width="0.3" clip-path="url(#clip125)"><line x1="0" y1="0" x2="198.8" y2="0"/></g></g></g><g transform="translate(249.95,0)"><clipPath id="clip126"><rect x="-0.85" y="1.15" width="200.4" height="18.45"/></clipPath></g></g></g></g><g transform="translate(42.5,404.75)" fill="#000000" stroke="none" font-family="&apos;Arial&apos;" font-size="16"><text x="206.25" y="26.45">Mixed merging</text></g><g transform="translate(91.325,439.15)" font-family="&apos;Arial&apos;" font-size="16"><g transform="translate(0.25,2.25)"><g><g transform="translate(-91.575,-441.4)" fill="#EDD3B5" stroke="none"><rect x="135.225" y="441.65" width="375.35" height="20.45"/></g></g></g><g transform="translate(0.25,23)"><g><g transform="translate(-91.575,-462.15)" fill="#A8CEE2" stroke="none"><rect x="91.825" y="462.2" width="43.3" height="101.1"/></g></g></g><g transform="translate(0.25,83.6)"><g><g transform="translate(-91.575,-522.75)" fill="#C4C1BA" stroke="none"><rect x="341.975" y="522.8" width="168.6" height="40.5"/></g></g></g><g fill="none" stroke-width="0.5" stroke-linecap="square"><rect x="0.25" y="2.25" width="419.25" height="121.95"/></g><g transform="translate(0.25,2.25)"><g><g><clipPath id="clip127"><rect x="-0.25" y="-0.25" width="43.9" height="21.05"/></clipPath><g stroke-linecap="square" clip-path="url(#clip127)"><clipPath id="clip128"><rect x="42.6" y="0.2" width="1.05" height="20.6"/></clipPath><g stroke-width="0.1" clip-path="url(#clip128)"><line x1="43.6" y1="0" x2="43.6" y2="20.75"/></g></g><clipPath id="clip129"><rect x="-0.25" y="-0.25" width="43.9" height="21.05"/></clipPath><g stroke-linecap="square" clip-path="url(#clip129)"><clipPath id="clip130"><rect x="0.2" y="19.75" width="43.45" height="1.05"/></clipPath><g stroke-width="0.1" clip-path="url(#clip130)"><line x1="0" y1="20.75" x2="43.6" y2="20.75"/></g></g></g><g><clipPath id="clip131"><rect x="-0.75" y="1.25" width="45.3" height="18.45"/></clipPath></g><g transform="translate(43.6,0)"><clipPath id="clip132"><rect x="-0.05" y="-0.25" width="375.95" height="21.05"/></clipPath><g stroke-linecap="square" clip-path="url(#clip132)"><clipPath id="clip133"><rect x="0" y="19.75" width="375.45" height="1.05"/></clipPath><g stroke-width="0.1" clip-path="url(#clip133)"><line x1="0" y1="20.75" x2="375.65" y2="20.75"/></g></g></g><g transform="translate(43.6,0)"><clipPath id="clip134"><rect x="-0.95" y="1.25" width="377.35" height="18.45"/></clipPath><g clip-path="url(#clip134)"><g transform="translate(2.05,2.25)" fill="#000000" stroke="none" font-weight="bold" font-size="14"><text x="180.65" y="13">H</text></g></g></g></g></g><g transform="translate(0.25,23)"><g><g><clipPath id="clip135"><rect x="-0.25" y="-0.05" width="43.9" height="101.3"/></clipPath><g stroke-linecap="square" clip-path="url(#clip135)"><clipPath id="clip136"><rect x="42.6" y="0" width="1.05" height="101.25"/></clipPath><g stroke-width="0.1" clip-path="url(#clip136)"><line x1="43.6" y1="0" x2="43.6" y2="101.2"/></g></g><clipPath id="clip137"><rect x="-0.25" y="-0.05" width="43.9" height="101.3"/></clipPath><g stroke-linecap="square" clip-path="url(#clip137)"><clipPath id="clip138"><rect x="0.2" y="100.2" width="43.45" height="1.05"/></clipPath><g stroke-width="0.1" clip-path="url(#clip138)"><line x1="0" y1="101.2" x2="43.6" y2="101.2"/></g></g></g><g><clipPath id="clip139"><rect x="-0.75" y="-39.45" width="45.3" height="99.1"/></clipPath><g transform="translate(0,40.5)" clip-path="url(#clip139)"><g transform="translate(2.25,2.05)" fill="#000000" stroke="none" font-family="&apos;Times New Roman&apos;" font-weight="bold" font-size="14"><text x="14.6" y="12.45">V</text></g></g></g><g transform="translate(43.6,0)"><clipPath id="clip140"><rect x="-0.05" y="-0.05" width="122.1" height="20.3"/></clipPath><g stroke-linecap="square" clip-path="url(#clip140)"><clipPath id="clip141"><rect x="121" y="0" width="1.05" height="20.25"/></clipPath><g stroke-width="0.1" clip-path="url(#clip141)"><line x1="122" y1="0" x2="122" y2="20.2"/></g></g><clipPath id="clip142"><rect x="-0.05" y="-0.05" width="122.1" height="20.3"/></clipPath><g stroke-linecap="square" clip-path="url(#clip142)"><clipPath id="clip143"><rect x="0" y="19.2" width="122.05" height="1.05"/></clipPath><g stroke-width="0.1" clip-path="url(#clip143)"><line x1="0" y1="20.2" x2="122" y2="20.2"/></g></g></g><g transform="translate(43.6,0)"><clipPath id="clip144"><rect x="-0.95" y="1.05" width="123.9" height="18.1"/></clipPath></g><g transform="translate(165.6,0)"><clipPath id="clip145"><rect x="-0.05" y="-0.05" width="84.85" height="20.3"/></clipPath><g stroke-linecap="square" clip-path="url(#clip145)"><clipPath id="clip146"><rect x="83.75" y="0" width="1.05" height="20.25"/></clipPath><g stroke-width="0.1" clip-path="url(#clip146)"><line x1="84.75" y1="0" x2="84.75" y2="20.2"/></g></g><clipPath id="clip147"><rect x="-0.05" y="-0.05" width="84.85" height="20.3"/></clipPath><g stroke-linecap="square" clip-path="url(#clip147)"><clipPath id="clip148"><rect x="0" y="19.2" width="84.8" height="1.05"/></clipPath><g stroke-width="0.1" clip-path="url(#clip148)"><line x1="0" y1="20.2" x2="84.75" y2="20.2"/></g></g></g><g transform="translate(165.6,0)"><clipPath id="clip149"><rect x="-0.95" y="1.05" width="86.65" height="18.1"/></clipPath></g><g transform="translate(250.35,0)"><clipPath id="clip150"><rect x="-0.05" y="-0.05" width="83.85" height="20.3"/></clipPath><g stroke-linecap="square" clip-path="url(#clip150)"><clipPath id="clip151"><rect x="82.75" y="0" width="1.05" height="20.25"/></clipPath><g stroke-width="0.1" clip-path="url(#clip151)"><line x1="83.75" y1="0" x2="83.75" y2="20.2"/></g></g><clipPath id="clip152"><rect x="-0.05" y="-0.05" width="83.85" height="20.3"/></clipPath><g stroke-linecap="square" clip-path="url(#clip152)"><clipPath id="clip153"><rect x="0" y="19.2" width="83.8" height="1.05"/></clipPath><g stroke-width="0.1" clip-path="url(#clip153)"><line x1="0" y1="20.2" x2="83.75" y2="20.2"/></g></g></g><g transform="translate(250.35,0)"><clipPath id="clip154"><rect x="-0.95" y="1.05" width="85.65" height="18.1"/></clipPath></g><g transform="translate(334.1,0)"><clipPath id="clip155"><rect x="-0.05" y="-0.05" width="85.45" height="20.3"/></clipPath><g stroke-linecap="square" clip-path="url(#clip155)"><clipPath id="clip156"><rect x="0" y="19.2" width="84.95" height="1.05"/></clipPath><g stroke-width="0.1" clip-path="url(#clip156)"><line x1="0" y1="20.2" x2="85.15" y2="20.2"/></g></g></g><g transform="translate(334.1,0)"><clipPath id="clip157"><rect x="-0.95" y="1.05" width="86.85" height="18.1"/></clipPath></g></g></g><g transform="translate(0.25,43.2)"><g><g transform="translate(43.6,0)"><clipPath id="clip158"><rect x="-0.05" y="-0.05" width="122.1" height="20.3"/></clipPath><g stroke-linecap="square" clip-path="url(#clip158)"><clipPath id="clip159"><rect x="121" y="0" width="1.05" height="20.25"/></clipPath><g stroke-width="0.1" clip-path="url(#clip159)"><line x1="122" y1="0" x2="122" y2="20.2"/></g></g><clipPath id="clip160"><rect x="-0.05" y="-0.05" width="122.1" height="20.3"/></clipPath><g stroke-linecap="square" clip-path="url(#clip160)"><clipPath id="clip161"><rect x="0" y="19.2" width="122.05" height="1.05"/></clipPath><g stroke-width="0.1" clip-path="url(#clip161)"><line x1="0" y1="20.2" x2="122" y2="20.2"/></g></g></g><g transform="translate(43.6,0)"><clipPath id="clip162"><rect x="-0.95" y="1.05" width="123.9" height="18.1"/></clipPath></g><g transform="translate(165.6,0)"><clipPath id="clip163"><rect x="-0.05" y="-0.05" width="84.85" height="20.3"/></clipPath><g stroke-linecap="square" clip-path="url(#clip163)"><clipPath id="clip164"><rect x="83.75" y="0" width="1.05" height="20.25"/></clipPath><g stroke-width="0.1" clip-path="url(#clip164)"><line x1="84.75" y1="0" x2="84.75" y2="20.2"/></g></g><clipPath id="clip165"><rect x="-0.05" y="-0.05" width="84.85" height="20.3"/></clipPath><g stroke-linecap="square" clip-path="url(#clip165)"><clipPath id="clip166"><rect x="0" y="19.2" width="84.8" height="1.05"/></clipPath><g stroke-width="0.1" clip-path="url(#clip166)"><line x1="0" y1="20.2" x2="84.75" y2="20.2"/></g></g></g><g transform="translate(165.6,0)"><clipPath id="clip167"><rect x="-0.95" y="1.05" width="86.65" height="18.1"/></clipPath></g><g transform="translate(250.35,0)"><clipPath id="clip168"><rect x="-0.05" y="-0.05" width="83.85" height="20.3"/></clipPath><g stroke-linecap="square" clip-path="url(#clip168)"><clipPath id="clip169"><rect x="82.75" y="0" width="1.05" height="20.25"/></clipPath><g stroke-width="0.1" clip-path="url(#clip169)"><line x1="83.75" y1="0" x2="83.75" y2="20.2"/></g></g><clipPath id="clip170"><rect x="-0.05" y="-0.05" width="83.85" height="20.3"/></clipPath><g stroke-linecap="square" clip-path="url(#clip170)"><clipPath id="clip171"><rect x="0" y="19.2" width="83.8" height="1.05"/></clipPath><g stroke-width="0.1" clip-path="url(#clip171)"><line x1="0" y1="20.2" x2="83.75" y2="20.2"/></g></g></g><g transform="translate(250.35,0)"><clipPath id="clip172"><rect x="-0.95" y="1.05" width="85.65" height="18.1"/></clipPath></g><g transform="translate(334.1,0)"><clipPath id="clip173"><rect x="-0.05" y="-0.05" width="85.45" height="20.3"/></clipPath><g stroke-linecap="square" clip-path="url(#clip173)"><clipPath id="clip174"><rect x="0" y="19.2" width="84.95" height="1.05"/></clipPath><g stroke-width="0.1" clip-path="url(#clip174)"><line x1="0" y1="20.2" x2="85.15" y2="20.2"/></g></g></g><g transform="translate(334.1,0)"><clipPath id="clip175"><rect x="-0.95" y="1.05" width="86.85" height="18.1"/></clipPath></g></g></g><g transform="translate(0.25,63.4)"><g><g transform="translate(43.6,0)"><clipPath id="clip176"><rect x="-0.05" y="-0.05" width="122.1" height="20.3"/></clipPath><g stroke-linecap="square" clip-path="url(#clip176)"><clipPath id="clip177"><rect x="121" y="0" width="1.05" height="20.25"/></clipPath><g stroke-width="0.1" clip-path="url(#clip177)"><line x1="122" y1="0" x2="122" y2="20.2"/></g></g><clipPath id="clip178"><rect x="-0.05" y="-0.05" width="122.1" height="20.3"/></clipPath><g stroke-linecap="square" clip-path="url(#clip178)"><clipPath id="clip179"><rect x="0" y="19.2" width="122.05" height="1.05"/></clipPath><g stroke-width="0.1" clip-path="url(#clip179)"><line x1="0" y1="20.2" x2="122" y2="20.2"/></g></g></g><g transform="translate(43.6,0)"><clipPath id="clip180"><rect x="-0.95" y="1.05" width="123.9" height="18.1"/></clipPath></g><g transform="translate(165.6,0)"><clipPath id="clip181"><rect x="-0.05" y="-0.05" width="84.85" height="20.3"/></clipPath><g stroke-linecap="square" clip-path="url(#clip181)"><clipPath id="clip182"><rect x="83.75" y="0" width="1.05" height="20.25"/></clipPath><g stroke-width="0.1" clip-path="url(#clip182)"><line x1="84.75" y1="0" x2="84.75" y2="20.2"/></g></g><clipPath id="clip183"><rect x="-0.05" y="-0.05" width="84.85" height="20.3"/></clipPath><g stroke-linecap="square" clip-path="url(#clip183)"><clipPath id="clip184"><rect x="0" y="19.2" width="84.8" height="1.05"/></clipPath><g stroke-width="0.1" clip-path="url(#clip184)"><line x1="0" y1="20.2" x2="84.75" y2="20.2"/></g></g></g><g transform="translate(165.6,0)"><clipPath id="clip185"><rect x="-0.95" y="1.05" width="86.65" height="18.1"/></clipPath></g><g transform="translate(250.35,0)"><clipPath id="clip186"><rect x="-0.05" y="-0.05" width="83.85" height="20.3"/></clipPath><g stroke-linecap="square" clip-path="url(#clip186)"><clipPath id="clip187"><rect x="82.75" y="0" width="1.05" height="20.25"/></clipPath><g stroke-width="0.1" clip-path="url(#clip187)"><line x1="83.75" y1="0" x2="83.75" y2="20.2"/></g></g><clipPath id="clip188"><rect x="-0.05" y="-0.05" width="83.85" height="20.3"/></clipPath><g stroke-linecap="square" clip-path="url(#clip188)"><clipPath id="clip189"><rect x="0" y="19.2" width="83.8" height="1.05"/></clipPath><g stroke-width="0.1" clip-path="url(#clip189)"><line x1="0" y1="20.2" x2="83.75" y2="20.2"/></g></g></g><g transform="translate(250.35,0)"><clipPath id="clip190"><rect x="-0.95" y="1.05" width="85.65" height="18.1"/></clipPath></g><g transform="translate(334.1,0)"><clipPath id="clip191"><rect x="-0.05" y="-0.05" width="85.45" height="20.3"/></clipPath><g stroke-linecap="square" clip-path="url(#clip191)"><clipPath id="clip192"><rect x="0" y="19.2" width="84.95" height="1.05"/></clipPath><g stroke-width="0.1" clip-path="url(#clip192)"><line x1="0" y1="20.2" x2="85.15" y2="20.2"/></g></g></g><g transform="translate(334.1,0)"><clipPath id="clip193"><rect x="-0.95" y="1.05" width="86.85" height="18.1"/></clipPath></g></g></g><g transform="translate(0.25,83.6)"><g><g transform="translate(43.6,0)"><clipPath id="clip194"><rect x="-0.05" y="-0.05" width="122.1" height="20.3"/></clipPath><g stroke-linecap="square" clip-path="url(#clip194)"><clipPath id="clip195"><rect x="121" y="0" width="1.05" height="20.25"/></clipPath><g stroke-width="0.1" clip-path="url(#clip195)"><line x1="122" y1="0" x2="122" y2="20.2"/></g></g><clipPath id="clip196"><rect x="-0.05" y="-0.05" width="122.1" height="20.3"/></clipPath><g stroke-linecap="square" clip-path="url(#clip196)"><clipPath id="clip197"><rect x="0" y="19.2" width="122.05" height="1.05"/></clipPath><g stroke-width="0.1" clip-path="url(#clip197)"><line x1="0" y1="20.2" x2="122" y2="20.2"/></g></g></g><g transform="translate(43.6,0)"><clipPath id="clip198"><rect x="-0.95" y="1.05" width="123.9" height="18.1"/></clipPath></g><g transform="translate(165.6,0)"><clipPath id="clip199"><rect x="-0.05" y="-0.05" width="84.85" height="20.3"/></clipPath><g stroke-linecap="square" clip-path="url(#clip199)"><clipPath id="clip200"><rect x="83.75" y="0" width="1.05" height="20.25"/></clipPath><g stroke-width="0.1" clip-path="url(#clip200)"><line x1="84.75" y1="0" x2="84.75" y2="20.2"/></g></g><clipPath id="clip201"><rect x="-0.05" y="-0.05" width="84.85" height="20.3"/></clipPath><g stroke-linecap="square" clip-path="url(#clip201)"><clipPath id="clip202"><rect x="0" y="19.2" width="84.8" height="1.05"/></clipPath><g stroke-width="0.1" clip-path="url(#clip202)"><line x1="0" y1="20.2" x2="84.75" y2="20.2"/></g></g></g><g transform="translate(165.6,0)"><clipPath id="clip203"><rect x="-0.95" y="1.05" width="86.65" height="18.1"/></clipPath></g><g transform="translate(250.35,0)"><clipPath id="clip204"><rect x="-0.05" y="-0.05" width="169.2" height="40.7"/></clipPath><g stroke-linecap="square" clip-path="url(#clip204)"><clipPath id="clip205"><rect x="0" y="39.6" width="168.7" height="1.05"/></clipPath><g stroke-width="0.1" clip-path="url(#clip205)"><line x1="0" y1="40.6" x2="168.9" y2="40.6"/></g></g></g><g transform="translate(250.35,0)"><clipPath id="clip206"><rect x="-0.95" y="-8.975" width="170.6" height="38.5"/></clipPath><g transform="translate(0,10.025)" clip-path="url(#clip206)"><g transform="translate(2.05,2.05)" fill="#000000" stroke="none" font-weight="bold" font-size="14"><text x="68.5" y="13">H+V</text></g></g></g></g></g><g transform="translate(0.25,103.8)"><g><g transform="translate(43.6,0)"><clipPath id="clip207"><rect x="-0.05" y="-0.05" width="122.1" height="20.7"/></clipPath><g stroke-linecap="square" clip-path="url(#clip207)"><clipPath id="clip208"><rect x="121" y="0" width="1.05" height="20.2"/></clipPath><g stroke-width="0.1" clip-path="url(#clip208)"><line x1="122" y1="0" x2="122" y2="20.4"/></g></g></g><g transform="translate(43.6,0)"><clipPath id="clip209"><rect x="-0.95" y="1.05" width="123.9" height="18.1"/></clipPath></g><g transform="translate(165.6,0)"><clipPath id="clip210"><rect x="-0.05" y="-0.05" width="84.85" height="20.7"/></clipPath><g stroke-linecap="square" clip-path="url(#clip210)"><clipPath id="clip211"><rect x="83.75" y="0" width="1.05" height="20.2"/></clipPath><g stroke-width="0.1" clip-path="url(#clip211)"><line x1="84.75" y1="0" x2="84.75" y2="20.4"/></g></g></g><g transform="translate(165.6,0)"><clipPath id="clip212"><rect x="-0.95" y="1.05" width="86.65" height="18.1"/></clipPath></g></g></g></g></g></g></g></g></svg>